<svg width="3423" height="2249" xmlns="http://www.w3.org/2000/svg" xmlns:xlink="http://www.w3.org/1999/xlink" xml:space="preserve" overflow="hidden"><defs><clipPath id="clip0"><rect x="28" y="77" width="3423" height="2249"/></clipPath></defs><g clip-path="url(#clip0)" transform="translate(-28 -77)"><path d="M165.647 1043.5 165.647 1223.93 305.298 1223.93 305.298 1197.5 415.5 1274.5 305.298 1351.5 305.298 1325.07 64.4999 1325.07 64.4999 1043.5Z" stroke="#FFFFFF" stroke-width="4.58333" stroke-miterlimit="8" fill="#C0C9E4" fill-rule="evenodd"/><path d="M30.5001 726.513C30.5001 691.159 59.1595 662.5 94.5128 662.5L395.487 662.5C430.841 662.5 459.5 691.159 459.5 726.513L459.5 982.487C459.5 1017.84 430.841 1046.5 395.487 1046.5L94.5128 1046.5C59.1595 1046.5 30.5001 1017.84 30.5001 982.487Z" stroke="#FFFFFF" stroke-width="4.58333" stroke-miterlimit="8" fill="#4472C4" fill-rule="evenodd"/><text fill="#FFFFFF" font-family="Calibri,Calibri_MSFontService,sans-serif" font-weight="400" font-size="83" transform="matrix(1 0 0 1 160.881 876)">main</text><text font-family="Calibri,Calibri_MSFontService,sans-serif" font-weight="400" font-size="64" transform="matrix(1 0 0 1 495.67 808)">•</text><text font-family="Calibri,Calibri_MSFontService,sans-serif" font-weight="400" font-size="64" transform="matrix(1 0 0 1 536.92 808)">Current updated </text><text font-family="Calibri,Calibri_MSFontService,sans-serif" font-weight="400" font-size="64" transform="matrix(1 0 0 1 536.92 879)">code </text><text font-family="Calibri,Calibri_MSFontService,sans-serif" font-weight="400" font-size="64" transform="matrix(1 0 0 1 495.67 961)">•</text><text font-family="Calibri,Calibri_MSFontService,sans-serif" font-weight="400" font-size="64" transform="matrix(1 0 0 1 536.92 961)">Ready to deploy</text><path d="M416.5 1203.67C416.5 1181.49 434.487 1163.5 456.675 1163.5L815.326 1163.5C837.513 1163.5 855.5 1181.49 855.5 1203.67L855.5 1364.33C855.5 1386.51 837.513 1404.5 815.326 1404.5L456.675 1404.5C434.487 1404.5 416.5 1386.51 416.5 1364.33Z" stroke="#FFFFFF" stroke-width="4.58333" stroke-miterlimit="8" fill="#4472C4" fill-rule="evenodd"/><text fill="#FFFFFF" font-family="Calibri,Calibri_MSFontService,sans-serif" font-weight="400" font-size="64" transform="matrix(1 0 0 1 495.952 1231)">Short lived </text><text fill="#FFFFFF" font-family="Calibri,Calibri_MSFontService,sans-serif" font-weight="400" font-size="64" transform="matrix(1 0 0 1 541.052 1302)">feature </text><text fill="#FFFFFF" font-family="Calibri,Calibri_MSFontService,sans-serif" font-weight="400" font-size="64" transform="matrix(1 0 0 1 505.875 1372)">branch #1</text><text font-family="Calibri,Calibri_MSFontService,sans-serif" font-weight="400" font-size="46" transform="matrix(1 0 0 1 894.907 1293)">•</text><text font-family="Calibri,Calibri_MSFontService,sans-serif" font-weight="400" font-size="46" transform="matrix(1 0 0 1 917.732 1293)">Contains small </text><text font-family="Calibri,Calibri_MSFontService,sans-serif" font-weight="400" font-size="46" transform="matrix(1 0 0 1 915.532 1343)">feature updates</text><text font-family="Calibri,Calibri_MSFontService,sans-serif" font-weight="400" font-size="46" transform="matrix(1 0 0 1 894.907 1402)">•</text><text font-family="Calibri,Calibri_MSFontService,sans-serif" font-weight="400" font-size="46" transform="matrix(1 0 0 1 917.732 1402)">Issue per branch</text><text font-family="Calibri,Calibri_MSFontService,sans-serif" font-weight="400" font-size="46" transform="matrix(1 0 0 1 894.907 1461)">•</text><text font-family="Calibri,Calibri_MSFontService,sans-serif" font-weight="400" font-size="46" transform="matrix(1 0 0 1 917.732 1461)">Merge into </text><text font-family="Calibri,Calibri_MSFontService,sans-serif" font-weight="400" font-size="46" transform="matrix(1 0 0 1 915.532 1511)">main once </text><text font-family="Calibri,Calibri_MSFontService,sans-serif" font-weight="400" font-size="46" transform="matrix(1 0 0 1 915.532 1562)">passes the </text><text font-family="Calibri,Calibri_MSFontService,sans-serif" font-weight="400" font-size="46" transform="matrix(1 0 0 1 915.532 1612)">automated </text><text font-family="Calibri,Calibri_MSFontService,sans-serif" font-weight="400" font-size="46" transform="matrix(1 0 0 1 915.532 1662)">workflow</text><path d="M180.454 1317.5 180.454 1520.77 299.344 1520.77 299.344 1491 423.5 1577.75 299.344 1664.5 299.344 1634.73 66.4998 1634.73 66.4998 1317.5Z" stroke="#FFFFFF" stroke-width="4.58333" stroke-miterlimit="8" fill="#C0C9E4" fill-rule="evenodd"/><path d="M423.5 1508.5C423.5 1486.96 440.961 1469.5 462.501 1469.5L846.499 1469.5C868.039 1469.5 885.5 1486.96 885.5 1508.5L885.5 1664.5C885.5 1686.04 868.039 1703.5 846.499 1703.5L462.501 1703.5C440.961 1703.5 423.5 1686.04 423.5 1664.5Z" stroke="#2F528F" stroke-width="4.58333" stroke-miterlimit="8" fill="#4472C4" fill-rule="evenodd"/><text fill="#FFFFFF" font-family="Calibri,Calibri_MSFontService,sans-serif" font-weight="400" font-size="64" transform="matrix(1 0 0 1 514.231 1530)">Short lived </text><text fill="#FFFFFF" font-family="Calibri,Calibri_MSFontService,sans-serif" font-weight="400" font-size="64" transform="matrix(1 0 0 1 559.286 1607)">feature </text><text fill="#FFFFFF" font-family="Calibri,Calibri_MSFontService,sans-serif" font-weight="400" font-size="64" transform="matrix(1 0 0 1 524.315 1684)">branch #2</text><path d="M1503.16 803.5 1503.16 1002.67 1657.85 1002.67 1657.85 973.5 1779.5 1058.5 1657.85 1143.5 1657.85 1114.33 1391.5 1114.33 1391.5 803.5Z" stroke="#FFFFFF" stroke-width="4.58333" stroke-miterlimit="8" fill="#C0C9E4" fill-rule="evenodd"/><path d="M1343.5 453.348C1343.5 414.22 1375.22 382.5 1414.35 382.5L1746.65 382.5C1785.78 382.5 1817.5 414.22 1817.5 453.348L1817.5 736.652C1817.5 775.78 1785.78 807.5 1746.65 807.5L1414.35 807.5C1375.22 807.5 1343.5 775.78 1343.5 736.652Z" stroke="#FFFFFF" stroke-width="4.58333" stroke-miterlimit="8" fill="#4472C4" fill-rule="evenodd"/><text fill="#FFFFFF" font-family="Calibri,Calibri_MSFontService,sans-serif" font-weight="400" font-size="64" transform="matrix(1 0 0 1 1514.89 612)">main</text><text font-family="Calibri,Calibri_MSFontService,sans-serif" font-weight="400" font-size="64" transform="matrix(1 0 0 1 1850.56 442)">•</text><text font-family="Calibri,Calibri_MSFontService,sans-serif" font-weight="400" font-size="64" transform="matrix(1 0 0 1 1891.81 442)">Current updated </text><text font-family="Calibri,Calibri_MSFontService,sans-serif" font-weight="400" font-size="64" transform="matrix(1 0 0 1 1891.81 513)">code </text><text font-family="Calibri,Calibri_MSFontService,sans-serif" font-weight="400" font-size="64" transform="matrix(1 0 0 1 1850.56 595)">•</text><text font-family="Calibri,Calibri_MSFontService,sans-serif" font-weight="400" font-size="64" transform="matrix(1 0 0 1 1891.81 595)">Ready to deploy</text><text font-family="Calibri,Calibri_MSFontService,sans-serif" font-weight="400" font-size="64" transform="matrix(1 0 0 1 1850.56 677)">•</text><text font-family="Calibri,Calibri_MSFontService,sans-serif" font-weight="400" font-size="64" transform="matrix(1 0 0 1 1891.81 677)">Update version </text><text font-family="Calibri,Calibri_MSFontService,sans-serif" font-weight="400" font-size="64" transform="matrix(1 0 0 1 1891.81 748)">numbering</text><path d="M1926.92 1110.5 1926.92 1349.79 2048.67 1349.79 2048.67 1316.5 2187.5 1413.5 2048.67 1510.5 2048.67 1477.21 1799.5 1477.21 1799.5 1110.5Z" stroke="#FFFFFF" stroke-width="4.58333" stroke-miterlimit="8" fill="#C0C9E4" fill-rule="evenodd"/><path d="M1776.5 929.507C1776.5 909.621 1792.62 893.5 1812.51 893.5L2141.49 893.5C2161.38 893.5 2177.5 909.621 2177.5 929.507L2177.5 1073.49C2177.5 1093.38 2161.38 1109.5 2141.49 1109.5L1812.51 1109.5C1792.62 1109.5 1776.5 1093.38 1776.5 1073.49Z" stroke="#FFFFFF" stroke-width="4.58333" stroke-miterlimit="8" fill="#4472C4" fill-rule="evenodd"/><text fill="#FFFFFF" font-family="Calibri,Calibri_MSFontService,sans-serif" font-weight="400" font-size="64" transform="matrix(1 0 0 1 1905.5 948)">Temp </text><text fill="#FFFFFF" font-family="Calibri,Calibri_MSFontService,sans-serif" font-weight="400" font-size="64" transform="matrix(1 0 0 1 1867.84 1019)">Baseline </text><text fill="#FFFFFF" font-family="Calibri,Calibri_MSFontService,sans-serif" font-weight="400" font-size="64" transform="matrix(1 0 0 1 1886.68 1089)">branch</text><text font-family="Calibri,Calibri_MSFontService,sans-serif" font-weight="400" font-size="55" transform="matrix(1 0 0 1 2211.01 830)">•</text><text font-family="Calibri,Calibri_MSFontService,sans-serif" font-weight="400" font-size="55" transform="matrix(1 0 0 1 2252.26 830)">Contains all the baseline </text><text font-family="Calibri,Calibri_MSFontService,sans-serif" font-weight="400" font-size="55" transform="matrix(1 0 0 1 2252.26 890)">updates during baseline </text><text font-family="Calibri,Calibri_MSFontService,sans-serif" font-weight="400" font-size="55" transform="matrix(1 0 0 1 2252.26 951)">freeze</text><text font-family="Calibri,Calibri_MSFontService,sans-serif" font-weight="400" font-size="55" transform="matrix(1 0 0 1 2211.01 1021)">•</text><text font-family="Calibri,Calibri_MSFontService,sans-serif" font-weight="400" font-size="55" transform="matrix(1 0 0 1 2252.26 1021)">Issue per branch</text><text font-family="Calibri,Calibri_MSFontService,sans-serif" font-weight="400" font-size="55" transform="matrix(1 0 0 1 2211.01 1092)">•</text><text font-family="Calibri,Calibri_MSFontService,sans-serif" font-weight="400" font-size="55" transform="matrix(1 0 0 1 2252.26 1092)">Merge the baseline </text><text font-family="Calibri,Calibri_MSFontService,sans-serif" font-weight="400" font-size="55" transform="matrix(1 0 0 1 2252.26 1152)">updates branches into </text><text font-family="Calibri,Calibri_MSFontService,sans-serif" font-weight="400" font-size="55" transform="matrix(1 0 0 1 2252.26 1212)">Temp once passes the </text><text font-family="Calibri,Calibri_MSFontService,sans-serif" font-weight="400" font-size="55" transform="matrix(1 0 0 1 2252.26 1273)">automated workflow</text><path d="M2185.5 1358.51C2185.5 1338.62 2201.62 1322.5 2221.51 1322.5L2499.49 1322.5C2519.38 1322.5 2535.5 1338.62 2535.5 1358.51L2535.5 1502.49C2535.5 1522.38 2519.38 1538.5 2499.49 1538.5L2221.51 1538.5C2201.62 1538.5 2185.5 1522.38 2185.5 1502.49Z" stroke="#FFFFFF" stroke-width="4.58333" stroke-miterlimit="8" fill="#4472C4" fill-rule="evenodd"/><text fill="#FFFFFF" font-family="Calibri,Calibri_MSFontService,sans-serif" font-weight="400" font-size="46" transform="matrix(1 0 0 1 2260.03 1393)">Short lived </text><text fill="#FFFFFF" font-family="Calibri,Calibri_MSFontService,sans-serif" font-weight="400" font-size="46" transform="matrix(1 0 0 1 2211.12 1443)">baseline update </text><text fill="#FFFFFF" font-family="Calibri,Calibri_MSFontService,sans-serif" font-weight="400" font-size="46" transform="matrix(1 0 0 1 2266.84 1494)">branch #1</text><path d="M1931.82 1469.5 1931.82 1721.09 2060.16 1721.09 2060.16 1686 2206.5 1788.25 2060.16 1890.5 2060.16 1855.41 1797.5 1855.41 1797.5 1469.5Z" stroke="#FFFFFF" stroke-width="4.58333" stroke-miterlimit="8" fill="#C0C9E4" fill-rule="evenodd"/><path d="M2201.5 1691.67C2201.5 1666.72 2221.72 1646.5 2246.67 1646.5L2542.33 1646.5C2567.28 1646.5 2587.5 1666.72 2587.5 1691.67L2587.5 1872.33C2587.5 1897.28 2567.28 1917.5 2542.33 1917.5L2246.67 1917.5C2221.72 1917.5 2201.5 1897.28 2201.5 1872.33Z" stroke="#2F528F" stroke-width="4.58333" stroke-miterlimit="8" fill="#4472C4" fill-rule="evenodd"/><text fill="#FFFFFF" font-family="Calibri,Calibri_MSFontService,sans-serif" font-weight="400" font-size="46" transform="matrix(1 0 0 1 2294.09 1715)">Short lived </text><text fill="#FFFFFF" font-family="Calibri,Calibri_MSFontService,sans-serif" font-weight="400" font-size="46" transform="matrix(1 0 0 1 2316.71 1770)">baseline </text><text fill="#FFFFFF" font-family="Calibri,Calibri_MSFontService,sans-serif" font-weight="400" font-size="46" transform="matrix(1 0 0 1 2257.7 1825)">update branch </text><text fill="#FFFFFF" font-family="Calibri,Calibri_MSFontService,sans-serif" font-weight="400" font-size="46" transform="matrix(1 0 0 1 2370.56 1880)">#2</text><path d="M1260.5 2292 1275.25 2292 1275.25 331.5 1304.75 331.5 1304.75 2292 1319.5 2292 1290 2321.5Z" stroke="#2F528F" stroke-width="4.58333" stroke-miterlimit="8" fill="#8FAADC" fill-rule="evenodd"/><path d="M293.833 95.5001 844.5 95.5001 844.5 227.166C844.5 241.71 832.71 253.5 818.167 253.5L267.5 253.5 267.5 121.834C267.5 107.29 279.29 95.5001 293.833 95.5001Z" stroke="#2F528F" stroke-width="4.58333" stroke-miterlimit="8" fill="#4472C4" fill-rule="evenodd"/><text fill="#FFFFFF" font-family="Calibri,Calibri_MSFontService,sans-serif" font-weight="400" font-size="64" transform="matrix(1 0 0 1 458.56 157)">Normal </text><text fill="#FFFFFF" font-family="Calibri,Calibri_MSFontService,sans-serif" font-weight="400" font-size="64" transform="matrix(1 0 0 1 411.099 234)">Operations</text><path d="M1746.83 95.5001 2298.5 95.5001 2298.5 227.166C2298.5 241.71 2286.71 253.5 2272.17 253.5L1720.5 253.5 1720.5 121.834C1720.5 107.29 1732.29 95.5001 1746.83 95.5001Z" stroke="#2F528F" stroke-width="4.58333" stroke-miterlimit="8" fill="#4472C4" fill-rule="evenodd"/><text fill="#FFFFFF" font-family="Calibri,Calibri_MSFontService,sans-serif" font-weight="400" font-size="64" transform="matrix(1 0 0 1 1811.9 196)">Baseline freeze</text><path d="M1782.5 2026.83C1782.5 2006.77 1798.77 1990.5 1818.83 1990.5L2216.17 1990.5C2236.23 1990.5 2252.5 2006.77 2252.5 2026.83L2252.5 2172.17C2252.5 2192.23 2236.23 2208.5 2216.17 2208.5L1818.83 2208.5C1798.77 2208.5 1782.5 2192.23 1782.5 2172.17Z" stroke="#2F528F" stroke-width="4.58333" stroke-miterlimit="8" fill="#4472C4" fill-rule="evenodd"/><text fill="#FFFFFF" font-family="Calibri,Calibri_MSFontService,sans-serif" font-weight="400" font-size="55" transform="matrix(1 0 0 1 1897.76 2051)">Short lived </text><text fill="#FFFFFF" font-family="Calibri,Calibri_MSFontService,sans-serif" font-weight="400" font-size="55" transform="matrix(1 0 0 1 1853.25 2117)">feature branch </text><text fill="#FFFFFF" font-family="Calibri,Calibri_MSFontService,sans-serif" font-weight="400" font-size="55" transform="matrix(1 0 0 1 1989.17 2183)">#1</text><path d="M1521.92 1115.5 1521.92 2016.79 1643.67 2016.79 1643.67 1983.5 1782.5 2080.5 1643.67 2177.5 1643.67 2144.21 1394.5 2144.21 1394.5 1115.5Z" stroke="#FFFFFF" stroke-width="4.58333" stroke-miterlimit="8" fill="#C0C9E4" fill-rule="evenodd"/><text font-family="Calibri,Calibri_MSFontService,sans-serif" font-weight="400" font-size="46" transform="matrix(1 0 0 1 2950.07 715)">•</text><text font-family="Calibri,Calibri_MSFontService,sans-serif" font-weight="400" font-size="46" transform="matrix(1 0 0 1 2972.99 715)">Perform code updates </text><text font-family="Calibri,Calibri_MSFontService,sans-serif" font-weight="400" font-size="46" transform="matrix(1 0 0 1 2970.7 765)">for the corresponding </text><text font-family="Calibri,Calibri_MSFontService,sans-serif" font-weight="400" font-size="46" transform="matrix(1 0 0 1 2970.7 814)">baseline updates</text><text font-family="Calibri,Calibri_MSFontService,sans-serif" font-weight="400" font-size="46" transform="matrix(1 0 0 1 2950.07 872)">•</text><text font-family="Calibri,Calibri_MSFontService,sans-serif" font-weight="400" font-size="46" transform="matrix(1 0 0 1 2972.99 872)">Merge all the baseline </text><text font-family="Calibri,Calibri_MSFontService,sans-serif" font-weight="400" font-size="46" transform="matrix(1 0 0 1 2970.7 922)">update branches</text><text font-family="Calibri,Calibri_MSFontService,sans-serif" font-weight="400" font-size="46" transform="matrix(1 0 0 1 2950.07 979)">•</text><text font-family="Calibri,Calibri_MSFontService,sans-serif" font-weight="400" font-size="46" transform="matrix(1 0 0 1 2972.99 979)">Merge contents from </text><text font-family="Calibri,Calibri_MSFontService,sans-serif" font-weight="400" font-size="46" transform="matrix(1 0 0 1 2970.7 1029)">main into Temp </text><text font-family="Calibri,Calibri_MSFontService,sans-serif" font-weight="400" font-size="46" transform="matrix(1 0 0 1 2970.7 1078)">baseline branch</text><text font-family="Calibri,Calibri_MSFontService,sans-serif" font-weight="400" font-size="46" transform="matrix(1 0 0 1 2950.07 1136)">•</text><text font-family="Calibri,Calibri_MSFontService,sans-serif" font-weight="400" font-size="46" transform="matrix(1 0 0 1 2972.99 1136)">Merge Temp baseline </text><text font-family="Calibri,Calibri_MSFontService,sans-serif" font-weight="400" font-size="46" transform="matrix(1 0 0 1 2970.7 1186)">branch into main</text><text font-family="Calibri,Calibri_MSFontService,sans-serif" font-weight="400" font-size="46" transform="matrix(1 0 0 1 2950.07 1243)">•</text><text font-family="Calibri,Calibri_MSFontService,sans-serif" font-weight="400" font-size="46" transform="matrix(1 0 0 1 2972.99 1243)">Continue working off of </text><text font-family="Calibri,Calibri_MSFontService,sans-serif" font-weight="400" font-size="46" transform="matrix(1 0 0 1 2970.7 1293)">main (</text><text font-family="Calibri,Calibri_MSFontService,sans-serif" font-weight="400" font-size="46" transform="matrix(1 0 0 1 3087.57 1293)">Normal </text><text font-family="Calibri,Calibri_MSFontService,sans-serif" font-weight="400" font-size="46" transform="matrix(1 0 0 1 2970.7 1342)">Operations</text><text font-family="Calibri,Calibri_MSFontService,sans-serif" font-weight="400" font-size="46" transform="matrix(1 0 0 1 3177.52 1342)">)</text></g></svg>