<svg width="4344" height="2427" xmlns="http://www.w3.org/2000/svg" xmlns:xlink="http://www.w3.org/1999/xlink" xml:space="preserve" overflow="hidden"><defs><clipPath id="clip0"><rect x="25" y="23" width="4344" height="2427"/></clipPath></defs><g clip-path="url(#clip0)" transform="translate(-25 -23)"><rect x="27.5" y="25.4999" width="4339" height="2422" stroke="#2F528F" stroke-width="4.58333" stroke-miterlimit="8" fill="#FFFFFF"/><path d="M642.647 1090.5 642.647 1270.93 782.297 1270.93 782.297 1244.5 892.5 1321.5 782.297 1398.5 782.297 1372.07 541.5 1372.07 541.5 1090.5Z" stroke="#FFFFFF" stroke-width="4.58333" stroke-miterlimit="8" fill="#C0C9E4" fill-rule="evenodd"/><path d="M507.5 773.513C507.5 738.159 536.159 709.5 571.513 709.5L872.487 709.5C907.84 709.5 936.5 738.159 936.5 773.513L936.5 1029.49C936.5 1064.84 907.84 1093.5 872.487 1093.5L571.513 1093.5C536.159 1093.5 507.5 1064.84 507.5 1029.49Z" stroke="#FFFFFF" stroke-width="4.58333" stroke-miterlimit="8" fill="#4472C4" fill-rule="evenodd"/><text fill="#FFFFFF" font-family="Calibri,Calibri_MSFontService,sans-serif" font-weight="400" font-size="83" transform="matrix(1 0 0 1 637.723 924)">main</text><text font-family="Calibri,Calibri_MSFontService,sans-serif" font-weight="400" font-size="64" transform="matrix(1 0 0 1 972.512 856)">•</text><text font-family="Calibri,Calibri_MSFontService,sans-serif" font-weight="400" font-size="64" transform="matrix(1 0 0 1 1013.76 856)">Current updated </text><text font-family="Calibri,Calibri_MSFontService,sans-serif" font-weight="400" font-size="64" transform="matrix(1 0 0 1 1013.76 927)">code </text><text font-family="Calibri,Calibri_MSFontService,sans-serif" font-weight="400" font-size="64" transform="matrix(1 0 0 1 972.512 1009)">•</text><text font-family="Calibri,Calibri_MSFontService,sans-serif" font-weight="400" font-size="64" transform="matrix(1 0 0 1 1013.76 1009)">Ready to deploy</text><path d="M892.5 1251.67C892.5 1229.49 910.487 1211.5 932.674 1211.5L1292.33 1211.5C1314.51 1211.5 1332.5 1229.49 1332.5 1251.67L1332.5 1412.33C1332.5 1434.51 1314.51 1452.5 1292.33 1452.5L932.674 1452.5C910.487 1452.5 892.5 1434.51 892.5 1412.33Z" stroke="#FFFFFF" stroke-width="4.58333" stroke-miterlimit="8" fill="#4472C4" fill-rule="evenodd"/><text fill="#FFFFFF" font-family="Calibri,Calibri_MSFontService,sans-serif" font-weight="400" font-size="64" transform="matrix(1 0 0 1 972.794 1278)">Short lived </text><text fill="#FFFFFF" font-family="Calibri,Calibri_MSFontService,sans-serif" font-weight="400" font-size="64" transform="matrix(1 0 0 1 1017.89 1349)">feature </text><text fill="#FFFFFF" font-family="Calibri,Calibri_MSFontService,sans-serif" font-weight="400" font-size="64" transform="matrix(1 0 0 1 982.717 1419)">branch #1</text><text font-family="Calibri,Calibri_MSFontService,sans-serif" font-weight="400" font-size="46" transform="matrix(1 0 0 1 1371.75 1341)">•</text><text font-family="Calibri,Calibri_MSFontService,sans-serif" font-weight="400" font-size="46" transform="matrix(1 0 0 1 1394.57 1341)">Contains small </text><text font-family="Calibri,Calibri_MSFontService,sans-serif" font-weight="400" font-size="46" transform="matrix(1 0 0 1 1392.37 1391)">feature updates</text><text font-family="Calibri,Calibri_MSFontService,sans-serif" font-weight="400" font-size="46" transform="matrix(1 0 0 1 1371.75 1450)">•</text><text font-family="Calibri,Calibri_MSFontService,sans-serif" font-weight="400" font-size="46" transform="matrix(1 0 0 1 1394.57 1450)">Issue per branch</text><text font-family="Calibri,Calibri_MSFontService,sans-serif" font-weight="400" font-size="46" transform="matrix(1 0 0 1 1371.75 1509)">•</text><text font-family="Calibri,Calibri_MSFontService,sans-serif" font-weight="400" font-size="46" transform="matrix(1 0 0 1 1394.57 1509)">Merge into </text><text font-family="Calibri,Calibri_MSFontService,sans-serif" font-weight="400" font-size="46" transform="matrix(1 0 0 1 1392.37 1559)">main once </text><text font-family="Calibri,Calibri_MSFontService,sans-serif" font-weight="400" font-size="46" transform="matrix(1 0 0 1 1392.37 1610)">passes the </text><text font-family="Calibri,Calibri_MSFontService,sans-serif" font-weight="400" font-size="46" transform="matrix(1 0 0 1 1392.37 1660)">automated </text><text font-family="Calibri,Calibri_MSFontService,sans-serif" font-weight="400" font-size="46" transform="matrix(1 0 0 1 1392.37 1710)">workflow</text><text fill="#FFFFFF" font-family="Calibri,Calibri_MSFontService,sans-serif" font-weight="400" font-size="110" transform="matrix(1 0 0 1 2395.55 889)">main</text><path d="M657.126 1365.5 657.126 1568.19 776.701 1568.19 776.701 1538.5 900.5 1625 776.701 1711.5 776.701 1681.81 543.5 1681.81 543.5 1365.5Z" stroke="#FFFFFF" stroke-width="4.58333" stroke-miterlimit="8" fill="#C0C9E4" fill-rule="evenodd"/><path d="M900.5 1555.5C900.5 1533.96 917.961 1516.5 939.501 1516.5L1323.5 1516.5C1345.04 1516.5 1362.5 1533.96 1362.5 1555.5L1362.5 1711.5C1362.5 1733.04 1345.04 1750.5 1323.5 1750.5L939.501 1750.5C917.961 1750.5 900.5 1733.04 900.5 1711.5Z" stroke="#2F528F" stroke-width="4.58333" stroke-miterlimit="8" fill="#4472C4" fill-rule="evenodd"/><text fill="#FFFFFF" font-family="Calibri,Calibri_MSFontService,sans-serif" font-weight="400" font-size="64" transform="matrix(1 0 0 1 991.073 1577)">Short lived </text><text fill="#FFFFFF" font-family="Calibri,Calibri_MSFontService,sans-serif" font-weight="400" font-size="64" transform="matrix(1 0 0 1 1036.13 1654)">feature </text><text fill="#FFFFFF" font-family="Calibri,Calibri_MSFontService,sans-serif" font-weight="400" font-size="64" transform="matrix(1 0 0 1 1001.16 1731)">branch #2</text><path d="M1980.48 850.5 1980.48 1050.26 2134.49 1050.26 2134.49 1021 2256.5 1106.25 2134.49 1191.5 2134.49 1162.24 1868.5 1162.24 1868.5 850.5Z" stroke="#FFFFFF" stroke-width="4.58333" stroke-miterlimit="8" fill="#C0C9E4" fill-rule="evenodd"/><path d="M1820.5 500.347C1820.5 461.219 1852.22 429.5 1891.35 429.5L2223.65 429.5C2262.78 429.5 2294.5 461.219 2294.5 500.347L2294.5 783.652C2294.5 822.781 2262.78 854.5 2223.65 854.5L1891.35 854.5C1852.22 854.5 1820.5 822.781 1820.5 783.652Z" stroke="#FFFFFF" stroke-width="4.58333" stroke-miterlimit="8" fill="#4472C4" fill-rule="evenodd"/><text fill="#FFFFFF" font-family="Calibri,Calibri_MSFontService,sans-serif" font-weight="400" font-size="64" transform="matrix(1 0 0 1 1991.74 659)">main</text><text font-family="Calibri,Calibri_MSFontService,sans-serif" font-weight="400" font-size="64" transform="matrix(1 0 0 1 2327.4 489)">•</text><text font-family="Calibri,Calibri_MSFontService,sans-serif" font-weight="400" font-size="64" transform="matrix(1 0 0 1 2368.65 489)">Current updated </text><text font-family="Calibri,Calibri_MSFontService,sans-serif" font-weight="400" font-size="64" transform="matrix(1 0 0 1 2368.65 560)">code </text><text font-family="Calibri,Calibri_MSFontService,sans-serif" font-weight="400" font-size="64" transform="matrix(1 0 0 1 2327.4 642)">•</text><text font-family="Calibri,Calibri_MSFontService,sans-serif" font-weight="400" font-size="64" transform="matrix(1 0 0 1 2368.65 642)">Ready to deploy</text><text font-family="Calibri,Calibri_MSFontService,sans-serif" font-weight="400" font-size="64" transform="matrix(1 0 0 1 2327.4 724)">•</text><text font-family="Calibri,Calibri_MSFontService,sans-serif" font-weight="400" font-size="64" transform="matrix(1 0 0 1 2368.65 724)">Update version </text><text font-family="Calibri,Calibri_MSFontService,sans-serif" font-weight="400" font-size="64" transform="matrix(1 0 0 1 2368.65 795)">numbering</text><path d="M2403.93 1158.5 2403.93 1397.8 2525.68 1397.8 2525.68 1364.51 2664.5 1461.5 2525.68 1558.5 2525.68 1525.21 2276.52 1525.21 2276.52 1158.5Z" stroke="#FFFFFF" stroke-width="4.58333" stroke-miterlimit="8" fill="#C0C9E4" fill-rule="evenodd"/><path d="M2253.5 976.507C2253.5 956.621 2269.62 940.5 2289.51 940.5L2618.49 940.5C2638.38 940.5 2654.5 956.621 2654.5 976.507L2654.5 1120.49C2654.5 1140.38 2638.38 1156.5 2618.49 1156.5L2289.51 1156.5C2269.62 1156.5 2253.5 1140.38 2253.5 1120.49Z" stroke="#FFFFFF" stroke-width="4.58333" stroke-miterlimit="8" fill="#4472C4" fill-rule="evenodd"/><text fill="#FFFFFF" font-family="Calibri,Calibri_MSFontService,sans-serif" font-weight="400" font-size="64" transform="matrix(1 0 0 1 2382.34 995)">Temp </text><text fill="#FFFFFF" font-family="Calibri,Calibri_MSFontService,sans-serif" font-weight="400" font-size="64" transform="matrix(1 0 0 1 2344.69 1066)">Baseline </text><text fill="#FFFFFF" font-family="Calibri,Calibri_MSFontService,sans-serif" font-weight="400" font-size="64" transform="matrix(1 0 0 1 2363.52 1136)">branch</text><text font-family="Calibri,Calibri_MSFontService,sans-serif" font-weight="400" font-size="55" transform="matrix(1 0 0 1 2687.85 877)">•</text><text font-family="Calibri,Calibri_MSFontService,sans-serif" font-weight="400" font-size="55" transform="matrix(1 0 0 1 2729.1 877)">Contains all the baseline </text><text font-family="Calibri,Calibri_MSFontService,sans-serif" font-weight="400" font-size="55" transform="matrix(1 0 0 1 2729.1 937)">updates during baseline </text><text font-family="Calibri,Calibri_MSFontService,sans-serif" font-weight="400" font-size="55" transform="matrix(1 0 0 1 2729.1 998)">freeze</text><text font-family="Calibri,Calibri_MSFontService,sans-serif" font-weight="400" font-size="55" transform="matrix(1 0 0 1 2687.85 1068)">•</text><text font-family="Calibri,Calibri_MSFontService,sans-serif" font-weight="400" font-size="55" transform="matrix(1 0 0 1 2729.1 1068)">Issue per branch</text><text font-family="Calibri,Calibri_MSFontService,sans-serif" font-weight="400" font-size="55" transform="matrix(1 0 0 1 2687.85 1139)">•</text><text font-family="Calibri,Calibri_MSFontService,sans-serif" font-weight="400" font-size="55" transform="matrix(1 0 0 1 2729.1 1139)">Merge the baseline </text><text font-family="Calibri,Calibri_MSFontService,sans-serif" font-weight="400" font-size="55" transform="matrix(1 0 0 1 2729.1 1199)">updates branches into </text><text font-family="Calibri,Calibri_MSFontService,sans-serif" font-weight="400" font-size="55" transform="matrix(1 0 0 1 2729.1 1259)">Temp once passes the </text><text font-family="Calibri,Calibri_MSFontService,sans-serif" font-weight="400" font-size="55" transform="matrix(1 0 0 1 2729.1 1320)">automated workflow</text><path d="M2661.5 1406.51C2661.5 1386.62 2677.62 1370.5 2697.51 1370.5L2976.49 1370.5C2996.38 1370.5 3012.5 1386.62 3012.5 1406.51L3012.5 1550.49C3012.5 1570.38 2996.38 1586.5 2976.49 1586.5L2697.51 1586.5C2677.62 1586.5 2661.5 1570.38 2661.5 1550.49Z" stroke="#FFFFFF" stroke-width="4.58333" stroke-miterlimit="8" fill="#4472C4" fill-rule="evenodd"/><text fill="#FFFFFF" font-family="Calibri,Calibri_MSFontService,sans-serif" font-weight="400" font-size="46" transform="matrix(1 0 0 1 2736.87 1440)">Short lived </text><text fill="#FFFFFF" font-family="Calibri,Calibri_MSFontService,sans-serif" font-weight="400" font-size="46" transform="matrix(1 0 0 1 2687.97 1490)">baseline update </text><text fill="#FFFFFF" font-family="Calibri,Calibri_MSFontService,sans-serif" font-weight="400" font-size="46" transform="matrix(1 0 0 1 2743.68 1541)">branch #1</text><path d="M2408.82 1516.5 2408.82 1768.09 2537.16 1768.09 2537.16 1733 2683.5 1835.25 2537.16 1937.5 2537.16 1902.41 2274.5 1902.41 2274.5 1516.5Z" stroke="#FFFFFF" stroke-width="4.58333" stroke-miterlimit="8" fill="#C0C9E4" fill-rule="evenodd"/><path d="M2678.5 1739.67C2678.5 1714.72 2698.72 1694.5 2723.67 1694.5L3019.33 1694.5C3044.28 1694.5 3064.5 1714.72 3064.5 1739.67L3064.5 1920.33C3064.5 1945.28 3044.28 1965.5 3019.33 1965.5L2723.67 1965.5C2698.72 1965.5 2678.5 1945.28 2678.5 1920.33Z" stroke="#2F528F" stroke-width="4.58333" stroke-miterlimit="8" fill="#4472C4" fill-rule="evenodd"/><text fill="#FFFFFF" font-family="Calibri,Calibri_MSFontService,sans-serif" font-weight="400" font-size="46" transform="matrix(1 0 0 1 2770.93 1762)">Short lived </text><text fill="#FFFFFF" font-family="Calibri,Calibri_MSFontService,sans-serif" font-weight="400" font-size="46" transform="matrix(1 0 0 1 2793.55 1817)">baseline </text><text fill="#FFFFFF" font-family="Calibri,Calibri_MSFontService,sans-serif" font-weight="400" font-size="46" transform="matrix(1 0 0 1 2734.54 1872)">update branch </text><text fill="#FFFFFF" font-family="Calibri,Calibri_MSFontService,sans-serif" font-weight="400" font-size="46" transform="matrix(1 0 0 1 2847.41 1927)">#2</text><path d="M1737.5 2339 1752.25 2339 1752.25 379.5 1781.75 379.5 1781.75 2339 1796.5 2339 1767 2368.5Z" stroke="#2F528F" stroke-width="4.58333" stroke-miterlimit="8" fill="#8FAADC" fill-rule="evenodd"/><path d="M770.667 143.5 1321.5 143.5 1321.5 274.333C1321.5 288.785 1309.78 300.5 1295.33 300.5L744.5 300.5 744.5 169.667C744.5 155.215 756.215 143.5 770.667 143.5Z" stroke="#2F528F" stroke-width="4.58333" stroke-miterlimit="8" fill="#4472C4" fill-rule="evenodd"/><text fill="#FFFFFF" font-family="Calibri,Calibri_MSFontService,sans-serif" font-weight="400" font-size="64" transform="matrix(1 0 0 1 935.402 205)">Normal </text><text fill="#FFFFFF" font-family="Calibri,Calibri_MSFontService,sans-serif" font-weight="400" font-size="64" transform="matrix(1 0 0 1 887.941 282)">Operations</text><path d="M2223.67 143.5 2774.5 143.5 2774.5 274.333C2774.5 288.785 2762.78 300.5 2748.33 300.5L2197.5 300.5 2197.5 169.667C2197.5 155.215 2209.22 143.5 2223.67 143.5Z" stroke="#2F528F" stroke-width="4.58333" stroke-miterlimit="8" fill="#4472C4" fill-rule="evenodd"/><text fill="#FFFFFF" font-family="Calibri,Calibri_MSFontService,sans-serif" font-weight="400" font-size="64" transform="matrix(1 0 0 1 2288.74 243)">Baseline freeze</text><path d="M2259.5 2074.67C2259.5 2054.69 2275.69 2038.5 2295.67 2038.5L2693.33 2038.5C2713.31 2038.5 2729.5 2054.69 2729.5 2074.67L2729.5 2219.33C2729.5 2239.31 2713.31 2255.5 2693.33 2255.5L2295.67 2255.5C2275.69 2255.5 2259.5 2239.31 2259.5 2219.33Z" stroke="#2F528F" stroke-width="4.58333" stroke-miterlimit="8" fill="#4472C4" fill-rule="evenodd"/><text fill="#FFFFFF" font-family="Calibri,Calibri_MSFontService,sans-serif" font-weight="400" font-size="55" transform="matrix(1 0 0 1 2374.6 2098)">Short lived </text><text fill="#FFFFFF" font-family="Calibri,Calibri_MSFontService,sans-serif" font-weight="400" font-size="55" transform="matrix(1 0 0 1 2330.1 2164)">feature branch </text><text fill="#FFFFFF" font-family="Calibri,Calibri_MSFontService,sans-serif" font-weight="400" font-size="55" transform="matrix(1 0 0 1 2466.01 2230)">#1</text><path d="M1998.92 1162.5 1998.92 2064.79 2120.67 2064.79 2120.67 2031.5 2259.5 2128.5 2120.67 2225.5 2120.67 2192.21 1871.5 2192.21 1871.5 1162.5Z" stroke="#FFFFFF" stroke-width="4.58333" stroke-miterlimit="8" fill="#C0C9E4" fill-rule="evenodd"/><text font-family="Calibri,Calibri_MSFontService,sans-serif" font-weight="400" font-size="55" transform="matrix(1 0 0 1 2788.11 2104)">Continue </text><text font-family="Calibri,Calibri_MSFontService,sans-serif" font-weight="400" font-size="55" transform="matrix(1 0 0 1 2788.11 2170)">code updates </text><text font-family="Calibri,Calibri_MSFontService,sans-serif" font-weight="400" font-size="55" transform="matrix(1 0 0 1 2788.11 2236)">until code </text><text font-family="Calibri,Calibri_MSFontService,sans-serif" font-weight="400" font-size="55" transform="matrix(1 0 0 1 2788.11 2302)">freeze</text><text font-family="Calibri,Calibri_MSFontService,sans-serif" font-weight="400" font-size="46" transform="matrix(1 0 0 1 3426.91 762)">•</text><text font-family="Calibri,Calibri_MSFontService,sans-serif" font-weight="400" font-size="46" transform="matrix(1 0 0 1 3449.83 762)">Perform code updates </text><text font-family="Calibri,Calibri_MSFontService,sans-serif" font-weight="400" font-size="46" transform="matrix(1 0 0 1 3447.54 812)">for the corresponding </text><text font-family="Calibri,Calibri_MSFontService,sans-serif" font-weight="400" font-size="46" transform="matrix(1 0 0 1 3447.54 861)">baseline updates</text><text font-family="Calibri,Calibri_MSFontService,sans-serif" font-weight="400" font-size="46" transform="matrix(1 0 0 1 3426.91 919)">•</text><text font-family="Calibri,Calibri_MSFontService,sans-serif" font-weight="400" font-size="46" transform="matrix(1 0 0 1 3449.83 919)">Merge all the baseline </text><text font-family="Calibri,Calibri_MSFontService,sans-serif" font-weight="400" font-size="46" transform="matrix(1 0 0 1 3447.54 969)">update branches</text><text font-family="Calibri,Calibri_MSFontService,sans-serif" font-weight="400" font-size="46" transform="matrix(1 0 0 1 3426.91 1026)">•</text><text font-family="Calibri,Calibri_MSFontService,sans-serif" font-weight="400" font-size="46" transform="matrix(1 0 0 1 3449.83 1026)">Merge contents from </text><text font-family="Calibri,Calibri_MSFontService,sans-serif" font-weight="400" font-size="46" transform="matrix(1 0 0 1 3447.54 1076)">main into Temp </text><text font-family="Calibri,Calibri_MSFontService,sans-serif" font-weight="400" font-size="46" transform="matrix(1 0 0 1 3447.54 1125)">baseline branch</text><text font-family="Calibri,Calibri_MSFontService,sans-serif" font-weight="400" font-size="46" transform="matrix(1 0 0 1 3426.91 1183)">•</text><text font-family="Calibri,Calibri_MSFontService,sans-serif" font-weight="400" font-size="46" transform="matrix(1 0 0 1 3449.83 1183)">Merge Temp baseline </text><text font-family="Calibri,Calibri_MSFontService,sans-serif" font-weight="400" font-size="46" transform="matrix(1 0 0 1 3447.54 1233)">branch into main</text><text font-family="Calibri,Calibri_MSFontService,sans-serif" font-weight="400" font-size="46" transform="matrix(1 0 0 1 3426.91 1290)">•</text><text font-family="Calibri,Calibri_MSFontService,sans-serif" font-weight="400" font-size="46" transform="matrix(1 0 0 1 3449.83 1290)">Continue working off of </text><text font-family="Calibri,Calibri_MSFontService,sans-serif" font-weight="400" font-size="46" transform="matrix(1 0 0 1 3447.54 1340)">main (</text><text font-family="Calibri,Calibri_MSFontService,sans-serif" font-weight="400" font-size="46" transform="matrix(1 0 0 1 3564.41 1340)">Normal </text><text font-family="Calibri,Calibri_MSFontService,sans-serif" font-weight="400" font-size="46" transform="matrix(1 0 0 1 3447.54 1389)">Operations</text><text font-family="Calibri,Calibri_MSFontService,sans-serif" font-weight="400" font-size="46" transform="matrix(1 0 0 1 3654.36 1389)">)</text><text font-family="Calibri,Calibri_MSFontService,sans-serif" font-weight="700" font-size="64" transform="matrix(-1.83697e-16 -1 1 -1.83697e-16 3373.57 1239)">Post Release</text><path d="M3397.5 784.67C3397.5 737.08 3436.08 698.5 3483.67 698.5L3828.34 698.5C3875.93 698.5 3914.51 737.08 3914.51 784.67L3914.51 1342.33C3914.51 1389.92 3875.93 1428.5 3828.34 1428.5L3483.67 1428.5C3436.08 1428.5 3397.5 1389.92 3397.5 1342.33Z" stroke="#2F528F" stroke-width="4.58333" stroke-miterlimit="8" fill="none" fill-rule="evenodd"/></g></svg>